<?xml version="1.0" encoding="UTF-8" standalone="no"?>
<svg
   xmlns:dc="http://purl.org/dc/elements/1.1/"
   xmlns:cc="http://creativecommons.org/ns#"
   xmlns:rdf="http://www.w3.org/1999/02/22-rdf-syntax-ns#"
   xmlns:svg="http://www.w3.org/2000/svg"
   xmlns="http://www.w3.org/2000/svg"
   version="1.1"
   id="svg2"
   viewBox="0 0 150.19843 46.751469"
   height="46.751469"
   width="150.19843">
  <defs
     id="defs4" />
  <metadata
     id="metadata7">
    <rdf:RDF>
      <cc:Work
         rdf:about="">
        <dc:format>image/svg+xml</dc:format>
        <dc:type
           rdf:resource="http://purl.org/dc/dcmitype/StillImage" />
        <dc:title></dc:title>
      </cc:Work>
    </rdf:RDF>
  </metadata>
  <g
     transform="translate(-134.49737,-143.72208)"
     style="display:inline"
     id="layer1">
    <rect
       y="183.79077"
       x="140"
       height="48.571426"
       width="150"
       id="rect6292"
       style="fill:#fed766;fill-opacity:0;stroke:none;stroke-width:0.2;stroke-linejoin:round;stroke-miterlimit:4;stroke-dasharray:none;stroke-opacity:1" />
    <rect
       y="186.6479"
       x="125"
       height="58.571426"
       width="170"
       id="rect6266"
       style="fill:#fed766;fill-opacity:0;stroke:none;stroke-width:0.2;stroke-linejoin:round;stroke-miterlimit:4;stroke-dasharray:none;stroke-opacity:1" />
    <g
       transform="matrix(-1,0,0,1,474.13315,6.4793306)"
       id="g6242">
      <path
         style="fill:#000000;fill-opacity:1;stroke:none;stroke-opacity:1"
         d="m 338.79203,183.798 c -1.97365,-0.39384 -2.85633,-3.97837 -4.27518,-3.86595 0.037,0.82901 1.72186,3.4561 0.24147,1.43585 -1.15492,-0.95592 -2.16925,-5.51074 -3.76421,-2.75796 -0.27219,1.02327 1.40097,1.53765 -0.0134,1.64684 -1.00782,-0.60751 0.36026,-2.95411 -0.93066,-2.90995 -1.41017,-0.0838 -2.63513,-0.18193 -4.02951,-0.18821 -0.98176,1.82624 -3.19209,1.28203 -4.81312,0.82766 -1.82366,0.86919 -3.79577,-0.15593 -5.2222,-1.25173 -6.98522,-3.37235 -2.97759,-1.08392 -7.3595,-3.38037 -1.59557,-1.64815 -3.62939,-2.71906 -5.26604,-4.2435 -1.1437,-1.85742 -3.59049,-2.48897 -4.3119,-4.81268 -1.71562,-1.44018 -3.06171,-3.13132 -4.45108,-4.8817 -1.0357,-1.77988 -3.11108,-2.85351 -3.59766,-5.08652 -0.56091,-2.27657 -3.12342,-3.17312 -4.29911,-4.80307 0.42669,-2.83438 4.32199,-3.5305 6.74847,-3.85915 2.38337,0.11756 4.55149,1.16516 7.01849,0.73295 2.38098,0.0608 3.88506,2.31753 6.31179,2.15498 2.28497,0.43246 3.72837,2.44934 5.96855,2.99447 2.15973,0.44252 2.92097,2.62276 5.18917,2.62023 1.87531,1.17599 2.98816,3.23386 5.28561,3.78233 1.40651,0.99133 1.70543,2.5612 3.63385,2.901 1.53667,1.84043 2.62083,4.1203 4.08424,6.05617 1.00565,1.94955 0.81317,4.18416 1.56139,6.17969 0.12855,1.10831 2.48466,-0.96141 2.10574,0.17887 -1.4329,0.23997 -1.10559,1.68565 -0.0347,2.13717 -0.0298,2.3387 3.46986,1.67864 3.53821,3.82281 -0.75312,-1.5339 -0.15734,1.40814 -0.71197,-0.30422 -0.25131,-1.50953 -2.29007,-1.09124 -0.71864,0.12161 0.47613,1.6544 1.19504,4.64776 2.95565,3.70773 -0.84209,0.58721 -2.22409,0.13989 -0.56187,1.00543 0.39674,0.11325 -0.32707,0.44529 -0.28193,0.0392 z m -1.86186,-2.19062 c -0.1672,-1.26408 -1.56682,-3.13459 -1.38133,-3.88872 1.61113,-0.45111 -1.92392,0.325 -1.35331,-1.26104 -0.15647,-1.31433 -1.67824,-1.66422 -1.96806,-2.954 -1.6005,2.34948 0.59731,-1.44152 -0.95408,-1.93266 -0.33482,-2.04429 -0.32769,-4.64879 -2.22234,-5.95405 -0.68731,-0.21775 -3.85509,-0.87587 -1.43164,-0.6147 2.42291,0.13737 -1.16593,-3.31644 -2.08968,-4.00382 -1.72918,-1.27121 -4.07656,-0.86664 -5.75493,0.16682 0.56702,-1.88501 5.40924,-0.38306 3.13564,-2.6139 -2.07083,-0.67982 -3.59035,-2.16634 -5.04079,-3.73572 -1.0221,-1.13084 -4.60718,0.19447 -4.49755,-0.36773 3.48303,-0.27084 -1.20774,-3.04419 -2.75439,-2.82042 -1.77471,-0.85724 -3.1505,-3.13845 -5.59707,-2.67476 -2.71861,-0.0946 -5.44359,1.02717 -7.39169,2.83061 1.0558,-1.87731 3.01673,-3.21495 5.30819,-2.91198 0.15341,-1.02487 -2.59899,-2.23528 -3.88856,-1.95358 -2.50885,0.34898 -4.92189,-0.84314 -7.40212,-0.47561 -1.4082,0.42015 -5.36536,1.21427 -3.77339,3.23657 1.10777,1.24179 2.67955,1.89018 2.44978,0.45216 0.61613,2.49303 1.16977,5.39222 3.5427,6.85271 0.72737,1.57571 1.82467,2.2934 2.29894,0.88841 -1.3221,1.81511 2.33916,6.1795 2.88258,2.90005 0.35619,-1.09936 2.13869,-3.58637 0.75624,-0.9598 -1.28325,1.9572 -0.56878,4.28097 0.95917,5.85444 1.82233,0.91999 2.72697,2.47817 4.2529,3.76688 1.98157,0.90833 2.95513,3.62768 5.31061,3.86224 -0.49893,-1.7641 -0.77101,-5.15959 0.94945,-5.78429 0.99193,0.92299 0.65836,2.0785 -0.48551,2.26385 -1.02001,1.33478 0.12539,2.42587 0.43597,3.72955 1.69346,1.00156 3.7952,1.7603 3.25743,-0.80409 0.0649,2.84604 3.06143,5.04799 5.84437,4.53547 -0.41734,-0.59343 -1.60582,-3.78023 -0.93925,-3.29844 0.33969,1.17185 0.77104,2.87908 2.06487,3.27521 2.12193,1.45978 3.76533,-0.58822 5.83041,-0.66314 1.98899,0.31316 4.70715,-0.33719 6.24392,1.36492 1.25561,1.19789 3.02526,3.28703 3.63831,4.1367 z m -24.59949,-23.59794 c -0.47882,-2.02074 -0.76023,1.62369 -0.77553,-0.44121 -1.44955,-1.23507 -2.88747,-2.56381 -2.84956,-4.72958 -0.56032,-0.95911 1.33199,-1.21257 1.8398,-0.47612 0.021,1.18187 -1.43652,3.29055 0.7039,4.0906 0.67407,-0.22815 1.80369,2.69931 1.08139,1.55631 z m -2.4893,-2.61908 c -0.42408,-0.59027 0.31097,-3.77061 -0.74986,-1.94532 -0.32849,0.47158 1.21381,3.29306 0.74986,1.94532 z m 0.55233,-2.73192 c -0.70867,-0.98811 -2.43106,0.29939 -0.61246,-0.15797 0.11179,0.14903 0.85503,0.84486 0.61246,0.15797 z m 23.61794,26.61176 c -0.75624,-1.39421 0.12503,1.97027 0.0397,0.33119 z m -2.88106,-1.4371 c 0.29968,-1.13912 -0.70566,0.0189 0,0 z m 2.33912,-3.76131 c 0.0516,-1.39398 -1.20432,0.82339 0,0 z m -22.54609,-5.11025 c 0.69063,-1.25835 -1.65793,1.85618 -0.2716,0.31172 z m 0.62555,0.20592 c 0.484,-1.15178 -1.53487,-1.61807 -0.12082,-0.50956 0.0452,0.087 -0.37509,0.79898 0.12082,0.50956 z m -10.92399,-19.63215 c 0.9405,-0.57733 -1.60503,0.57211 0,0 z"
         id="path6144" />
      <path
         style="fill:#fed766;fill-opacity:1;fill-rule:evenodd;stroke:#000000;stroke-width:0.2;stroke-linecap:butt;stroke-linejoin:miter;stroke-miterlimit:4;stroke-dasharray:none;stroke-opacity:1"
         d="m 290.16632,146.76045 3.28299,-0.63135 2.02031,0.52674 2.65165,0.25254 2.02031,-0.0217 3.40926,1.76776 -3.78807,0.88389 0.004,0.12232 1.26005,-0.24225 4.29184,-0.76396 2.047,0.65936 3.38257,2.22951 2.09056,0.38012 1.69751,1.52924 0.12627,0.75761 -1.51523,0.63135 3.03046,-0.63135 1.41062,0.40048 2.57134,2.0726 3.04447,2.01265 0.54971,1.07011 -2.82124,0.54972 -1.59818,0.71297 2.96415,-0.81758 2.21289,0.06 1.89403,1.26269 2.27284,2.77792 0.25254,0.50507 -2.39911,0.25254 2.60701,0.48976 1.4336,1.53055 0.50508,3.03045 1.24102,3.69879 1.77543,1.84939 2.14657,2.91185 0.80226,3.39658 -4.19752,-4.40673 -2.27284,-0.63135 -2.90419,-0.3788 -2.65165,0.50507 -1.51523,0.75762 -2.83022,-0.69766 c -1.52791,-3.20181 -0.5585,-2.46832 -0.21424,0.40048 l -2.34047,-0.22957 -2.11724,-1.13642 -1.33666,-2.1249 -1.08412,0.58036 -2.22186,-0.79592 c -0.6159,-1.22076 -1.12624,-2.12849 -0.99483,-3.48192 0.94634,-1.84064 0.0655,-1.10441 -0.30352,-0.17223 l 0.98082,3.82638 -2.73459,-1.15174 -4.29314,-4.41942 -2.94982,-2.34943 -1.35865,-1.72947 -0.69766,-2.42845 1.01016,-3.03045 -1.5369,3.23201 -0.98848,-0.45409 -1.38896,-1.38896 -0.25254,-1.89404 -0.60071,0.32016 -1.02678,-0.625 -2.41312,-3.35696 -1.38896,-3.78807 -0.96552,0.14925 -1.42857,-0.75893 -0.95653,-1.0688 0.82524,-1.47825 z"
         id="path6237" />
    </g>
    <g
       transform="translate(-0.8442701,0.92349163)"
       id="text4136"
       style="font-style:normal;font-weight:normal;font-size:40px;line-height:125%;font-family:sans-serif;letter-spacing:0px;word-spacing:0px;fill:#2ab7ca;fill-opacity:1;stroke:none;stroke-width:1px;stroke-linecap:butt;stroke-linejoin:miter;stroke-opacity:1">
      <path
         id="path4156"
         style="font-style:normal;font-variant:normal;font-weight:normal;font-stretch:normal;font-family:Milkshake;-inkscape-font-specification:Milkshake;fill:#2ab7ca;fill-opacity:1;stroke:none;stroke-opacity:1"
         d="m 197.91429,167.8422 q -0.92,1.52 -2.76,2.92 -1.8,1.36 -5.04,2.48 -0.88,2.4 -1.92,4.32 -1,1.96 -2.28,3.32 -1.28,1.4 -2.88,2.12 -1.56,0.76 -3.56,0.76 -1.56,0 -2.92,-0.52 -1.32,-0.48 -2.32,-1.32 -1,-0.8 -1.56,-1.8 -0.56,-1 -0.56,-1.96 0,-1.56 1.08,-2.56 1.12,-1 2.92,-1.64 1.8,-0.6 4.04,-0.96 2.28,-0.36 4.6,-0.64 0.2,0 0.32,-0.04 0.64,-1.6 1.28,-3.44 0.68,-1.88 1.36,-4.04 -0.68,0.64 -1.56,1.36 -0.88,0.72 -1.92,1.32 -1,0.6 -2.16,1 -1.12,0.4 -2.24,0.4 -1.04,0 -2.04,-0.36 -0.96,-0.4 -1.76,-1.04 -0.76,-0.64 -1.24,-1.48 -0.48,-0.88 -0.48,-1.8 0,-1.8 0.92,-3.92 0.92,-2.16 2,-4.36 1.12,-2.2 2.04,-4.36 0.92,-2.16 0.92,-4 0,-0.72 -0.32,-1.24 -0.28,-0.56 -1.4,-0.56 -0.92,0 -2.28,0.64 -1.32,0.6 -2.6,1.64 -1.24,1.04 -2.16,2.4 -0.88,1.36 -0.88,2.8 0,0.92 0.32,1.6 0.32,0.68 0.68,1.16 0.36,0.48 0.68,0.8 0.32,0.32 0.32,0.52 0,0.8 -0.84,0.8 -0.8,0 -1.84,-0.4 -1.04,-0.44 -1.96,-1.2 -0.92,-0.76 -1.56,-1.76 -0.64,-1 -0.64,-2.2 0,-1.84 1.36,-3.52 1.36,-1.68 3.4,-2.92 2.08,-1.28 4.52,-2 2.44,-0.76 4.64,-0.76 1.2,0 2.28,0.36 1.08,0.36 1.84,0.96 0.8,0.6 1.24,1.44 0.48,0.84 0.48,1.8 0,2.04 -0.8,4.12 -0.8,2.08 -1.76,4.04 -0.92,1.96 -1.72,3.72 -0.8,1.76 -0.8,3.12 0,0.92 0.48,1.64 0.48,0.68 1.4,0.68 0.96,0 2,-0.68 1.04,-0.68 2.04,-1.64 1,-1 1.84,-2.08 0.88,-1.08 1.44,-1.88 l 0.48,-1.48 q 0.72,-2.24 1.24,-3.76 0.56,-1.52 1.08,-2.68 0.56,-1.2 1.16,-2.28 0.6,-1.08 1.4,-2.48 0.48,-0.8 1.12,-1.28 0.64,-0.52 1.32,-0.8 0.72,-0.32 1.36,-0.44 0.68,-0.12 1.2,-0.12 1.16,0 1.16,0.56 0,0.32 -0.96,1.44 -0.36,0.44 -1,1.6 -0.64,1.16 -1.44,2.8 -0.76,1.64 -1.56,3.64 -0.8,2 -1.4,4.08 -1.04,3.64 -2,6.96 -0.92,3.28 -1.84,6.16 2.24,-0.84 3.6,-1.96 1.36,-1.16 2.12,-2.32 0.04,-0.12 0.2,-0.28 0.08,-0.08 0.24,-0.16 0.16,-0.12 0.36,-0.12 0.32,0 0.56,0.24 0.28,0.24 0.28,0.56 0,0.16 -0.08,0.32 -0.04,0.12 -0.12,0.28 -0.08,0.16 -0.16,0.36 z m -19.88,13.64 q 1.68,0 3.12,-1.68 1.44,-1.68 2.88,-5 -1.68,0.32 -3.12,0.8 -1.44,0.52 -2.52,1.12 -1.08,0.64 -1.72,1.36 -0.6,0.72 -0.6,1.48 0,0.8 0.6,1.36 0.6,0.56 1.36,0.56 z" />
      <path
         id="path4158"
         style="font-style:normal;font-variant:normal;font-weight:normal;font-stretch:normal;font-family:Milkshake;-inkscape-font-specification:Milkshake;fill:#2ab7ca;fill-opacity:1;stroke:none;stroke-opacity:1"
         d="m 216.93179,167.8422 q -0.88,1.4 -1.96,2.48 -0.92,0.92 -2.2,1.68 -1.24,0.76 -2.72,0.76 -1.68,0 -2.84,-0.84 -1.16,-0.88 -1.36,-2.56 -0.8,1 -1.72,1.72 -0.8,0.64 -1.8,1.16 -1,0.52 -2.16,0.52 -0.8,0 -1.56,-0.32 -0.72,-0.28 -1.28,-0.84 -0.52,-0.56 -0.84,-1.32 -0.32,-0.76 -0.32,-1.68 0,-2.16 0.8,-4.28 0.84,-2.12 2.16,-3.8 1.32,-1.72 2.96,-2.76 1.64,-1.04 3.28,-1.04 1.2,0 2.04,0.32 0.84,0.28 1.36,0.64 0.6,0.44 0.96,0.92 0.44,0 0.92,0.12 0.52,0.08 0.92,0.32 0.44,0.2 0.72,0.56 0.28,0.36 0.28,0.88 0,0.44 -0.36,1.44 -0.36,1 -0.8,2.24 -0.44,1.2 -0.8,2.52 -0.36,1.28 -0.36,2.28 0,0.48 0.28,0.8 0.32,0.32 0.84,0.32 0.8,0 1.56,-0.52 0.8,-0.52 1.4,-1.2 0.72,-0.72 1.32,-1.72 0.04,-0.12 0.2,-0.28 0.08,-0.08 0.24,-0.16 0.16,-0.12 0.36,-0.12 0.32,0 0.56,0.24 0.28,0.24 0.28,0.56 0,0.16 -0.08,0.32 -0.04,0.12 -0.12,0.28 -0.08,0.16 -0.16,0.36 z m -9.28,-7.08 q 0,-0.88 -0.44,-1.28 -0.4,-0.44 -1,-0.44 -0.88,0 -1.8,0.92 -0.92,0.92 -1.68,2.28 -0.72,1.32 -1.2,2.88 -0.48,1.56 -0.48,2.8 0,1.8 1.16,1.8 0.72,0 1.64,-0.96 0.96,-0.96 1.8,-2.36 0.84,-1.4 1.4,-2.92 0.6,-1.56 0.6,-2.72 z" />
      <path
         id="path4160"
         d="m 232.39429,168.3622 c -0.0744,-2.42582 1.12532,-4.60553 1.915,-6.82313 0.69178,-1.20944 -0.70826,-2.32291 -1.6325,-1.15687 -2.16276,1.84383 -3.08882,4.65016 -3.94562,7.26375 -0.47858,1.53574 -0.65915,3.14316 -0.75688,4.73625 -0.76744,0.78035 -2.14357,0.24797 -3.07672,-0.0161 -1.17618,-0.35655 -1.75491,-1.5984 -1.45266,-2.75641 0.32593,-2.78821 1.5615,-5.35129 2.21938,-8.0575 0.57342,-1.16024 -0.5698,-2.26279 -1.62375,-1.3575 -2.04287,1.29954 -2.97829,3.72653 -3.62539,5.95355 -0.57573,1.96167 -0.73857,4.01361 -0.75586,6.04895 -0.47504,1.0727 -2.08494,0.42247 -2.9725,0.2275 -1.31572,-0.33751 -1.93644,-1.70394 -1.61344,-2.97422 0.39263,-4.00209 1.65187,-7.8743 3.20094,-11.56828 0.50411,-1.29672 2.22811,-0.65995 2.90828,0.12172 0.58198,0.51248 0.88838,1.78441 1.61297,0.76078 1.66309,-1.19754 3.70526,-2.41166 5.83,-1.92437 1.28089,0.36536 1.94267,1.68442 2.36875,2.84187 1.70461,-1.43712 3.68223,-2.90307 6,-2.96 1.77459,0.12508 3.44635,1.95869 2.9,3.78 -0.69691,2.76622 -2.4509,5.29139 -2.375,8.22625 -0.073,1.41523 1.72043,1.69057 2.64437,0.95563 1.32315,-0.79548 2.29703,-0.52167 3.11063,-1.80402 1.14626,-0.96851 1.92305,-0.61777 0.96922,0.13589 -1.3207,2.01672 -3.15697,3.8948 -5.52016,4.60078 -2.28726,0.52675 -5.18598,-0.30368 -6.06109,-2.67734 -0.18786,-0.50291 -0.26848,-1.04161 -0.26797,-1.57718 z"
         style="font-style:normal;font-variant:normal;font-weight:normal;font-stretch:normal;font-family:Milkshake;-inkscape-font-specification:Milkshake;fill:#2ab7ca;fill-opacity:1;stroke:none;stroke-opacity:1" />
    </g>
    <g
       id="text4140"
       style="font-style:normal;font-weight:normal;font-size:53.70147324px;line-height:125%;font-family:sans-serif;letter-spacing:0px;word-spacing:0px;fill:#fe4a49;fill-opacity:1;stroke:none;stroke-width:1px;stroke-linecap:butt;stroke-linejoin:miter;stroke-opacity:1"
       transform="matrix(0.96968542,0,0,1.0312623,-0.8442701,0.92349163)">
      <path
         id="path4164"
         style="font-style:normal;font-variant:normal;font-weight:normal;font-stretch:normal;font-family:Milkshake;-inkscape-font-specification:Milkshake;fill:#fe4a49;fill-opacity:1;stroke:none;stroke-opacity:1"
         d="m 284.24674,178.38659 q -3.00729,0 -5.10164,-1.07403 -2.04066,-1.07403 -2.89988,-3.32949 -0.48332,-1.28883 -0.64442,-3.11468 -0.16111,-1.87955 -0.16111,-4.45722 0,-1.39624 -0.3222,-2.25547 -0.32221,-0.85922 -0.75182,-1.34253 -1.44994,0.1611 -2.95359,0.1611 l -1.07403,0 q -1.07402,4.34982 -2.36286,7.3034 -1.28884,2.95358 -2.89988,4.77943 -1.55734,1.77215 -3.43689,2.57767 -1.87956,0.75182 -4.13502,0.75182 -2.79247,0 -5.15534,-0.96662 -2.36286,-1.02033 -4.08131,-2.47027 -1.66475,-1.44994 -2.63137,-3.11469 -0.91293,-1.71844 -0.91293,-3.11468 0,-1.66475 1.02033,-3.06099 1.02033,-1.39623 2.47027,-2.36286 1.50364,-1.02033 3.11468,-1.55734 1.61105,-0.59072 2.79248,-0.59072 0.59072,0 0.96663,0.26851 0.37591,0.26851 0.37591,0.59071 0,0.42962 -0.21481,0.64442 -0.1611,0.16111 -0.75182,0.59072 -0.48331,0.37591 -1.12773,1.07403 -0.59072,0.69812 -1.12773,1.55734 -0.48331,0.85922 -0.85923,1.87955 -0.3222,0.96663 -0.3222,1.93325 0,1.02033 0.3222,1.93326 0.37592,0.91292 0.96663,1.66474 0.64442,0.69812 1.50364,1.12773 0.85923,0.42962 1.93326,0.42962 2.47026,0 4.56462,-3.3832 2.14806,-3.38319 4.02761,-10.9014 0.69812,-2.95358 1.23514,-5.04793 0.59071,-2.14806 1.12773,-3.70541 0.53701,-1.55734 1.12773,-2.63137 0.64441,-1.12773 1.50364,-2.09436 0.64442,-0.64441 1.66474,-1.12773 1.02033,-0.53701 2.04066,-0.85922 1.02033,-0.37591 1.82585,-0.53701 0.85922,-0.16111 1.12773,-0.16111 1.02033,0 1.02033,0.75182 0,0.16111 -0.32221,0.48331 -0.26851,0.32221 -0.69812,0.91293 -0.42961,0.59072 -1.02033,1.44994 -0.53701,0.85922 -1.02032,2.09436 -0.37592,0.96662 -0.69812,1.77215 -0.32221,0.80552 -0.64442,1.87955 -0.32221,1.02033 -0.75182,2.47027 -0.37591,1.39623 -0.85923,3.54429 2.57767,-0.0537 4.88684,-0.91292 2.36286,-0.85923 4.13501,-2.30917 1.77215,-1.44994 2.79248,-3.38319 1.07403,-1.93325 1.07403,-4.13501 0,-3.22209 -2.30917,-5.04794 -2.25546,-1.87955 -7.4108,-1.87955 -3.7591,0 -6.71268,0.80552 -2.89988,0.75182 -4.94054,2.14806 -1.98695,1.34254 -3.06098,3.16839 -1.02033,1.77214 -1.02033,3.8128 0,1.23513 0.42961,2.09436 0.42961,0.80552 0.91293,1.39624 0.48331,0.53701 0.91292,0.91292 0.42961,0.32221 0.42961,0.59072 0,1.02033 -1.12773,1.02033 -1.07403,0 -2.57767,-0.48332 -1.44994,-0.48331 -2.79248,-1.34253 -1.28883,-0.91293 -2.25546,-2.14806 -0.91292,-1.28884 -0.91292,-2.89988 0,-2.52397 1.93325,-4.72573 1.98696,-2.25546 5.15534,-3.86651 3.22209,-1.66474 7.3034,-2.63137 4.13502,-0.96663 8.43113,-0.96663 4.08132,0 7.2497,0.80552 3.16839,0.80553 5.26275,2.20176 2.14806,1.34254 3.22209,3.27579 1.12773,1.87956 1.12773,4.02762 0,2.20176 -1.02033,4.18871 -0.96663,1.93325 -2.68508,3.5443 -1.66474,1.61104 -3.9202,2.84618 -2.25546,1.23513 -4.72573,1.98695 0.75182,0.42961 1.44994,1.50364 0.75182,1.02033 1.02033,3.06099 0.64441,4.45722 1.66474,6.44417 1.02033,1.93325 3.06099,1.93325 1.07402,0 2.09435,-0.69811 1.07403,-0.69812 1.87955,-1.61105 0.96663,-0.96662 1.77215,-2.30916 0.0537,-0.16111 0.26851,-0.37591 0.1074,-0.10741 0.32221,-0.21481 0.2148,-0.1611 0.48331,-0.1611 0.42961,0 0.75182,0.32221 0.37591,0.32221 0.37591,0.75182 0,0.2148 -0.1074,0.42961 -0.0537,0.1611 -0.1611,0.37591 -0.10741,0.21481 -0.21481,0.48331 -1.18143,1.87955 -2.63137,3.32949 -1.23514,1.23514 -2.95358,2.25547 -1.66475,1.02032 -3.6517,1.02032 z" />
    </g>
    <rect
       y="200.21935"
       x="313.57144"
       height="60"
       width="170"
       id="rect6294"
       style="fill:#fed766;fill-opacity:0;stroke:#690057;stroke-width:0.2;stroke-linejoin:round;stroke-miterlimit:4;stroke-dasharray:none;stroke-opacity:1" />
  </g>
</svg>
